<?xml version="1.0" standalone="no"?>
<svg xmlns:xlink="http://www.w3.org/1999/xlink" id="wave" style="transform:rotate(0deg); transition: 0.3s" viewBox="0 0 1440 490" version="1.1" xmlns="http://www.w3.org/2000/svg"><defs><linearGradient id="sw-gradient-0" x1="0" x2="0" y1="1" y2="0"><stop stop-color="rgba(255, 255, 255, 1)" offset="0%"/><stop stop-color="rgba(171, 174, 255, 1)" offset="100%"/></linearGradient></defs><path style="transform:translate(0, 0px); opacity:1" fill="url(#sw-gradient-0)" d="M0,98L80,89.8C160,82,320,65,480,81.7C640,98,800,147,960,147C1120,147,1280,98,1440,106.2C1600,114,1760,180,1920,228.7C2080,278,2240,310,2400,334.8C2560,359,2720,376,2880,351.2C3040,327,3200,261,3360,220.5C3520,180,3680,163,3840,138.8C4000,114,4160,82,4320,130.7C4480,180,4640,310,4800,310.3C4960,310,5120,180,5280,163.3C5440,147,5600,245,5760,277.7C5920,310,6080,278,6240,285.8C6400,294,6560,343,6720,310.3C6880,278,7040,163,7200,138.8C7360,114,7520,180,7680,245C7840,310,8000,376,8160,408.3C8320,441,8480,441,8640,375.7C8800,310,8960,180,9120,106.2C9280,33,9440,16,9600,40.8C9760,65,9920,131,10080,179.7C10240,229,10400,261,10560,269.5C10720,278,10880,261,11040,236.8C11200,212,11360,180,11440,163.3L11520,147L11520,490L11440,490C11360,490,11200,490,11040,490C10880,490,10720,490,10560,490C10400,490,10240,490,10080,490C9920,490,9760,490,9600,490C9440,490,9280,490,9120,490C8960,490,8800,490,8640,490C8480,490,8320,490,8160,490C8000,490,7840,490,7680,490C7520,490,7360,490,7200,490C7040,490,6880,490,6720,490C6560,490,6400,490,6240,490C6080,490,5920,490,5760,490C5600,490,5440,490,5280,490C5120,490,4960,490,4800,490C4640,490,4480,490,4320,490C4160,490,4000,490,3840,490C3680,490,3520,490,3360,490C3200,490,3040,490,2880,490C2720,490,2560,490,2400,490C2240,490,2080,490,1920,490C1760,490,1600,490,1440,490C1280,490,1120,490,960,490C800,490,640,490,480,490C320,490,160,490,80,490L0,490Z"/></svg>